<svg width="160" height="117" viewBox="0 0 160 117" xmlns="http://www.w3.org/2000/svg" xmlns:xlink="http://www.w3.org/1999/xlink" overflow="hidden"><defs><path d="M0.012 0.06 0.012 10.047 11.769 10.047 11.769 0.059 0.012 0.059Z" id="a"/></defs><g fill="none" fill-rule="evenodd"><path d="M101.15 0.02C89.485 0.02 79.42 6.298 74.746 15.371 70.629 13.335 65.919 12.179 60.915 12.179 44.793 12.179 31.723 24.169 31.723 38.959L31.723 72.772C31.723 77.998 35.786 82.235 40.796 82.235 45.808 82.235 49.871 77.998 49.871 72.772L49.871 39.63C49.871 34.034 54.815 29.498 60.915 29.498 67.015 29.498 71.959 34.034 71.959 39.63L71.959 72.772C71.959 77.998 76.021 82.235 81.033 82.235 86.043 82.235 90.106 77.998 90.106 72.772L90.106 26.39C90.106 20.795 95.051 16.258 101.15 16.258 107.25 16.258 112.195 20.795 112.195 26.39L112.195 72.772C112.195 77.998 116.258 82.235 121.268 82.235 126.28 82.235 130.342 77.998 130.342 72.772L130.342 26.802C130.342 12.01 117.272 0.02 101.15 0.02" fill="#EFA03F"/><g transform="matrix(1 0 0 1 0 93.956)"><mask id="b" fill="#FFFFFF"><use width="100%" height="100%" xlink:href="#a"></use></mask><path d="M10.33 10.047 9.484 4.277C9.36251 3.46032 9.25849 2.64113 9.172 1.82L9.142 1.82C9.00445 2.42837 8.84096 3.03059 8.652 3.625L6.5 10.047 5.046 10.047 3.013 4.054C2.761 3.3 2.493 2.471 2.375 1.82L2.36 1.82C2.3 2.634 2.196 3.433 2.078 4.41L1.395 10.047 0 10.047 1.47 0.059 3.146 0.059 5.254 6.348C5.506 7.073 5.699 7.738 5.818 8.33L5.848 8.33C5.996 7.635 6.144 7.147 6.382 6.437L8.564 0.059 10.255 0.059 11.769 10.047 10.329 10.047" fill="#161103" mask="url(#b)"/></g><path d="M18.584 95.066C16.921 95.066 15.437 96.412 15.437 98.927 15.437 101.31 16.447 102.937 18.569 102.937 20.201 102.937 21.745 101.635 21.745 99.061 21.745 96.501 20.587 95.066 18.584 95.066ZM18.45 104.151C15.437 104.151 13.983 102.153 13.983 99.12 13.983 95.79 16.12 93.867 18.732 93.867 21.433 93.867 23.199 95.613 23.199 98.897 23.199 102.227 21.062 104.151 18.45 104.151ZM32.254 104.003 28.44 97.818C28.0205 97.1493 27.6389 96.4575 27.297 95.746 27.357 96.812 27.401 99.209 27.401 100.792L27.401 104.002 26.065 104.002 26.065 94.015 27.861 94.015 31.586 100.008C32.032 100.733 32.447 101.488 32.818 102.198 32.758 100.969 32.714 98.513 32.714 96.856L32.714 94.016 34.035 94.016 34.035 104.003 32.255 104.003M40.716 95.155 40.716 104.003 39.35 104.003 39.35 95.155 36.47 95.155 36.47 94.015 43.61 94.015 43.61 95.155 40.716 95.155M46.03 104.003 46.03 94.015 51.18 94.015 51.18 95.14 47.395 95.14 47.395 98.306 51.002 98.306 51.002 99.401 47.395 99.401 47.395 102.863 51.18 102.863 51.18 104.003 46.03 104.003M55.826 104.136C55.099 104.136 54.386 104.047 53.808 103.899L53.882 102.597C54.461 102.804 55.248 102.967 55.945 102.967 57.147 102.967 58.142 102.479 58.142 101.251 58.142 99.001 53.63 99.889 53.63 96.708 53.63 95.066 54.936 93.882 57.192 93.882 57.8 93.882 58.409 93.941 59.002 94.06L58.928 95.273C58.3393 95.1036 57.7305 95.0138 57.118 95.006 55.752 95.006 55.04 95.628 55.04 96.56 55.04 98.72 59.566 97.936 59.566 101.058 59.566 102.848 58.156 104.136 55.826 104.136M63.901 104.136C63.2212 104.139 62.5436 104.059 61.883 103.899L61.957 102.597C62.536 102.804 63.323 102.967 64.02 102.967 65.222 102.967 66.217 102.479 66.217 101.251 66.217 99.001 61.705 99.889 61.705 96.708 61.705 95.066 63.011 93.882 65.267 93.882 65.875 93.882 66.484 93.941 67.077 94.06L67.003 95.273C66.4143 95.1036 65.8055 95.0138 65.193 95.006 63.827 95.006 63.115 95.628 63.115 96.56 63.115 98.72 67.641 97.936 67.641 101.058 67.641 102.848 66.231 104.136 63.901 104.136M74.544 95.066C72.882 95.066 71.397 96.412 71.397 98.927 71.397 101.31 72.407 102.937 74.529 102.937 76.162 102.937 77.705 101.635 77.705 99.061 77.705 96.501 76.548 95.066 74.544 95.066ZM74.41 104.151C71.397 104.151 69.943 102.153 69.943 99.12 69.943 95.79 72.08 93.867 74.693 93.867 77.393 93.867 79.16 95.613 79.16 98.897 79.16 102.227 77.022 104.151 74.41 104.151ZM84.297 95.066C83.955 95.066 83.658 95.081 83.391 95.096L83.391 98.498C83.54 98.513 83.836 98.528 84.237 98.528 85.677 98.528 86.507 97.803 86.507 96.738 86.507 95.539 85.751 95.066 84.297 95.066ZM86.849 104.003 83.451 99.519 83.391 99.519 83.391 104.003 82.026 104.003 82.026 94.015C82.708 93.971 83.436 93.956 84.534 93.956 86.508 93.956 87.932 94.651 87.932 96.56 87.932 98.262 86.627 99.253 84.875 99.371 85.172 99.727 85.484 100.111 85.751 100.437L88.586 104.003 86.849 104.003ZM91.066 104.003 92.431 104.003 92.431 94.015 91.066 94.015ZM104.38 104.12C101.159 104.12 99.823 102.079 99.823 99.268 99.823 96.22 101.337 93.926 104.721 93.926 105.493 93.926 106.279 94.045 106.991 94.222L106.843 95.465C106.109 95.2331 105.343 95.1134 104.573 95.11 102.287 95.11 101.307 96.856 101.307 99.046 101.307 101.502 102.376 102.907 104.706 102.907 105.433 102.907 106.353 102.701 106.946 102.405L107.096 103.618C106.339 103.928 105.389 104.121 104.38 104.121M113.582 95.066C111.92 95.066 110.436 96.412 110.436 98.927 110.436 101.31 111.446 102.937 113.568 102.937 115.2 102.937 116.744 101.635 116.744 99.061 116.744 96.501 115.586 95.066 113.582 95.066ZM113.449 104.151C110.436 104.151 108.982 102.153 108.982 99.12 108.982 95.79 111.119 93.867 113.731 93.867 116.432 93.867 118.198 95.613 118.198 98.897 118.198 102.227 116.061 104.151 113.449 104.151ZM121.064 104.003 121.064 94.015 122.429 94.015 122.429 102.834 126.021 102.834 126.021 104.003 121.064 104.003M128.337 104.003 128.337 94.015 129.703 94.015 129.703 102.834 133.294 102.834 133.294 104.003 128.337 104.003M135.61 104.003 135.61 94.015 140.76 94.015 140.76 95.14 136.976 95.14 136.976 98.306 140.582 98.306 140.582 99.401 136.976 99.401 136.976 102.863 140.761 102.863 140.761 104.003 135.611 104.003M151.107 95.584C150.259 95.2357 149.352 95.0547 148.435 95.051 146.372 95.051 144.606 96.383 144.606 99.046 144.606 101.532 146.061 102.952 148.316 102.952 148.984 102.952 149.548 102.849 150.083 102.686L150.083 98.913 151.433 98.913 151.433 103.559C150.439 103.929 149.222 104.136 148.123 104.136 145.096 104.136 143.151 102.301 143.151 99.209 143.151 96.146 145.2 93.882 148.569 93.882 149.519 93.882 150.424 94.03 151.314 94.312L151.107 95.584M154.744 104.003 154.744 94.015 159.894 94.015 159.894 95.14 156.11 95.14 156.11 98.306 159.716 98.306 159.716 99.401 156.11 99.401 156.11 102.863 159.894 102.863 159.894 104.003 154.744 104.003M35.786 116.829 34.976 116.829 32.578 110.825 33.423 110.825 34.859 114.566C35.068 115.086 35.241 115.582 35.38 116.066L35.392 116.066C35.554 115.582 35.728 115.096 35.913 114.624L37.465 110.825 38.241 110.825 35.786 116.829M46.578 116.829 45.663 116.829 44.297 112.996C44.147 112.569 43.984 112.096 43.845 111.622L43.833 111.622C43.694 112.095 43.556 112.569 43.382 113.053L42.073 116.829 41.17 116.829 39.213 110.825 40.07 110.825 41.309 114.774C41.471 115.27 41.575 115.686 41.668 116.055L41.679 116.055C41.784 115.651 41.911 115.212 42.062 114.762L43.44 110.825 44.331 110.825 45.721 114.751C45.848 115.143 46.011 115.651 46.115 116.067L46.126 116.067C46.242 115.674 46.393 115.212 46.532 114.762L47.771 110.825 48.593 110.825 46.578 116.829M52.274 111.356C51.174 111.356 50.19 112.211 50.19 113.792 50.19 115.12 50.7 116.286 52.228 116.286 53.432 116.286 54.358 115.455 54.358 113.873 54.358 112.233 53.571 111.356 52.274 111.356ZM52.17 116.91C50.225 116.91 49.402 115.617 49.402 113.873 49.402 111.876 50.746 110.744 52.344 110.744 54.139 110.744 55.146 111.853 55.146 113.792 55.146 115.802 53.849 116.91 52.17 116.91ZM60.387 114.433C59.8864 114.433 59.4805 114.027 59.4805 113.526 59.4805 113.026 59.8864 112.62 60.387 112.62 60.891 112.62 61.305 113.024 61.305 113.527 61.3011 114.03 60.8905 114.436 60.387 114.433M70.519 116.829 70.519 114.035 67.114 114.035 67.114 116.829 66.374 116.829 66.374 110.825 67.114 110.825 67.114 113.411 70.519 113.411 70.519 110.825 71.26 110.825 71.26 116.829 70.519 116.829M75.88 112.65C75.741 112.28 75.602 111.876 75.51 111.587L75.498 111.587C75.39 111.95 75.2666 112.308 75.128 112.661L74.258 114.866 76.737 114.866 75.88 112.65ZM77.501 116.829 76.957 115.432 74.04 115.432 73.484 116.829 72.731 116.829 75.14 110.825 75.95 110.825 78.325 116.829 77.5 116.829ZM81.565 116.829 80.755 116.829 78.357 110.825 79.203 110.825 80.638 114.566C80.848 115.086 81.021 115.582 81.16 116.066L81.171 116.066C81.333 115.582 81.508 115.096 81.693 114.624L83.244 110.825 84.02 110.825 81.565 116.829M87.551 111.356C86.451 111.356 85.467 112.211 85.467 113.792 85.467 115.12 85.977 116.286 87.505 116.286 88.71 116.286 89.636 115.455 89.636 113.873 89.636 112.233 88.849 111.356 87.551 111.356ZM87.447 116.91C85.501 116.91 84.679 115.617 84.679 113.873 84.679 111.876 86.023 110.744 87.621 110.744 89.416 110.744 90.423 111.853 90.423 113.792 90.423 115.802 89.126 116.91 87.447 116.91ZM95.637 114.433C95.1364 114.433 94.7305 114.027 94.7305 113.526 94.7305 113.026 95.1364 112.62 95.637 112.62 96.141 112.62 96.556 113.024 96.556 113.527 96.5516 114.031 96.1406 114.436 95.637 114.433M103.766 116.829 102.956 116.829 100.558 110.825 101.404 110.825 102.84 114.566C103.048 115.086 103.222 115.582 103.361 116.066L103.372 116.066C103.534 115.582 103.708 115.096 103.893 114.624L105.445 110.825 106.221 110.825 103.766 116.829M113.505 116.829 112.995 113.169C112.891 112.442 112.845 111.957 112.81 111.645L112.798 111.645C112.74 111.899 112.636 112.245 112.497 112.638L111.027 116.828 110.204 116.828 108.838 112.903C108.675 112.465 108.502 111.991 108.444 111.645L108.432 111.645C108.409 112.107 108.352 112.592 108.27 113.192L107.807 116.829 107.066 116.829 107.946 110.825 108.861 110.825 110.273 114.878C110.436 115.305 110.563 115.698 110.633 116.02L110.644 116.02C110.725 115.617 110.818 115.351 110.968 114.935L112.428 110.825 113.412 110.825 114.281 116.829 113.505 116.829M117.557 114C117.441 114 117.128 114 116.967 114.012L116.967 116.229C117.14 116.263 117.417 116.275 117.811 116.275 118.901 116.275 119.375 115.778 119.375 115.074 119.375 114.231 118.587 114 117.557 114ZM117.87 111.368C117.557 111.368 117.232 111.379 116.966 111.379L116.966 113.446C117.209 113.458 117.452 113.458 117.546 113.458 118.611 113.458 119.236 113.077 119.236 112.326 119.236 111.784 118.935 111.368 117.87 111.368ZM117.754 116.852C117.372 116.852 116.793 116.84 116.225 116.829L116.225 110.825C116.665 110.825 117.232 110.802 118.031 110.802 119.433 110.802 120.001 111.402 120.001 112.234 120.001 112.892 119.583 113.4 118.865 113.642L118.865 113.654C119.734 113.827 120.139 114.381 120.139 115.051 120.139 115.697 119.757 116.851 117.754 116.851ZM124.423 111.356C123.323 111.356 122.339 112.211 122.339 113.792 122.339 115.12 122.849 116.286 124.377 116.286 125.581 116.286 126.507 115.455 126.507 113.873 126.507 112.233 125.72 111.356 124.423 111.356ZM124.319 116.91C122.373 116.91 121.551 115.617 121.551 113.873 121.551 111.876 122.894 110.744 124.492 110.744 126.288 110.744 127.295 111.853 127.295 113.792 127.295 115.802 125.998 116.91 124.319 116.91Z" fill="#161103"/></g></svg>